<svg id="Icons" xmlns="http://www.w3.org/2000/svg" viewBox="0 0 128 128"><defs><style>.cls-1{fill:#99f;}</style></defs><g id="Ae"><g id="Ae_Logo" data-name="Ae Logo"><path class="cls-1" d="M42.64,42.68h-.16c-.8,3.2-1.6,7.28-2.48,10.4L36.8,64.52H48.72L45.36,53.08C44.4,49.88,43.44,45.88,42.64,42.68Z"/><path class="cls-1" d="M90.24,55.56c-5.12,0-7.2,4.64-7.52,7.92h14.4C97.12,60.52,95.84,55.56,90.24,55.56Z"/><path class="cls-1" d="M0,5V123a5,5,0,0,0,5,5H123a5,5,0,0,0,5-5V5a5,5,0,0,0-5-5H5A5,5,0,0,0,0,5ZM54.64,87.48,50.48,73.64H35L31.2,87.48H18.56L35,33.56H51L67.76,87.48ZM108,71.8H82.8c.4,5,5.36,7.44,11,7.44a34.45,34.45,0,0,0,10.8-1.6l1.6,8.24a38.61,38.61,0,0,1-14.16,2.4C78.8,88.28,71.2,80.6,71.2,68.36c0-9.92,6.16-20.88,19.76-20.88,12.64,0,17.44,9.84,17.44,19.52A28.89,28.89,0,0,1,108,71.8Z"/></g></g></svg>