<svg id="Icons" xmlns="http://www.w3.org/2000/svg" viewBox="0 0 128 128"><defs><style>.cls-1{fill:#ff9a00;}</style></defs><g id="Ai"><g id="Ai_Logo" data-name="Ai Logo"><path class="cls-1" d="M52.48,42.68h-.16c-.8,3.2-1.6,7.28-2.48,10.4l-3.2,11.44H58.56L55.2,53.08C54.24,49.88,53.28,45.88,52.48,42.68Z"/><path class="cls-1" d="M0,5V123a5,5,0,0,0,5,5H123a5,5,0,0,0,5-5V5a5,5,0,0,0-5-5H5A5,5,0,0,0,0,5ZM64.48,87.48,60.32,73.64H44.88L41,87.48H28.4L44.88,33.56h16L77.6,87.48Zm31.6,0H83.92V48.36H96.08ZM89.92,43.56c-3.84,0-6.4-2.72-6.32-6.08-.08-3.52,2.48-6.16,6.4-6.16a6.1,6.1,0,0,1,6.48,6.16C96.48,40.84,93.92,43.56,89.92,43.56Z"/></g></g></svg>