<svg id="Icons" xmlns="http://www.w3.org/2000/svg" viewBox="0 0 128 128"><defs><style>.cls-1{fill:#d9f5ff;}</style></defs><g id="Ps"><g id="Ps_Logo" data-name="Ps Logo"><path class="cls-1" d="M46.64,42.36a20.77,20.77,0,0,0-5,.48V58.76a18.64,18.64,0,0,0,4.08.32c6.48,0,10.48-3.28,10.48-8.8C56.16,45.32,52.72,42.36,46.64,42.36Z"/><path class="cls-1" d="M0,5V123a5,5,0,0,0,5,5H123a5,5,0,0,0,5-5V5a5,5,0,0,0-5-5H5A5,5,0,0,0,0,5ZM63.28,62.76C59.12,66.68,53,68.44,45.76,68.44a30.7,30.7,0,0,1-4.16-.24V87.48H29.52V34.28A99.81,99.81,0,0,1,46,33.16c7.52,0,12.88,1.44,16.48,4.32A15.76,15.76,0,0,1,68.24,50C68.24,55.24,66.48,59.72,63.28,62.76Zm21,25.52a27.7,27.7,0,0,1-12.64-2.72l2.16-8.72a23.77,23.77,0,0,0,10.48,3c3.68,0,5.2-1.28,5.2-3.28s-1.2-3-5.76-4.48c-8.08-2.72-11.2-7.12-11.12-11.76,0-7.28,6.24-12.8,15.92-12.8a26.24,26.24,0,0,1,11,2.24l-2.16,8.4A19.2,19.2,0,0,0,89,55.88c-3,0-4.64,1.2-4.64,3.2,0,1.84,1.52,2.8,6.32,4.48,7.44,2.56,10.56,6.32,10.64,12.08C101.28,82.92,95.52,88.28,84.32,88.28Z"/></g></g></svg>